<svg width="25" height="25" viewBox="0 0 25 25" fill="none" xmlns="http://www.w3.org/2000/svg">
<path d="M21.5278 5.55556H15.9722V6.94445H21.5278V21.5278H15.9722V22.9167H22.9167V6.94445C22.9167 6.57609 22.7703 6.22282 22.5099 5.96235C22.2494 5.70189 21.8961 5.55556 21.5278 5.55556Z" fill="black"/>
<path d="M13.8055 2.08334H4.24999C3.85954 2.08334 3.48507 2.23844 3.20897 2.51454C2.93288 2.79063 2.77777 3.1651 2.77777 3.55556V22.9167H15.2778V3.55556C15.2778 3.1651 15.1227 2.79063 14.8466 2.51454C14.5705 2.23844 14.196 2.08334 13.8055 2.08334ZM13.8889 21.5278H11.8055V19.4444H6.24999V21.5278H4.16666V3.55556C4.16666 3.54461 4.16882 3.53378 4.173 3.52367C4.17719 3.51356 4.18333 3.50437 4.19107 3.49663C4.19881 3.48889 4.20799 3.48276 4.2181 3.47857C4.22821 3.47438 4.23905 3.47222 4.24999 3.47222H13.8055C13.8165 3.47222 13.8273 3.47438 13.8374 3.47857C13.8475 3.48276 13.8567 3.48889 13.8645 3.49663C13.8722 3.50437 13.8784 3.51356 13.8825 3.52367C13.8867 3.53378 13.8889 3.54461 13.8889 3.55556V21.5278Z" fill="black"/>
<path d="M5.55554 5.55556H6.94443V6.94445H5.55554V5.55556Z" fill="black"/>
<path d="M8.33334 5.55556H9.72223V6.94445H8.33334V5.55556Z" fill="black"/>
<path d="M11.1111 5.55556H12.5V6.94445H11.1111V5.55556Z" fill="black"/>
<path d="M5.55554 9.02778H6.94443V10.4167H5.55554V9.02778Z" fill="black"/>
<path d="M8.33334 9.02778H9.72223V10.4167H8.33334V9.02778Z" fill="black"/>
<path d="M11.1111 9.02778H12.5V10.4167H11.1111V9.02778Z" fill="black"/>
<path d="M5.55554 12.5H6.94443V13.8889H5.55554V12.5Z" fill="black"/>
<path d="M8.33334 12.5H9.72223V13.8889H8.33334V12.5Z" fill="black"/>
<path d="M11.1111 12.5H12.5V13.8889H11.1111V12.5Z" fill="black"/>
<path d="M5.55554 15.9722H6.94443V17.3611H5.55554V15.9722Z" fill="black"/>
<path d="M8.33334 15.9722H9.72223V17.3611H8.33334V15.9722Z" fill="black"/>
<path d="M11.1111 15.9722H12.5V17.3611H11.1111V15.9722Z" fill="black"/>
<path d="M15.9722 9.02778H17.3611V10.4167H15.9722V9.02778Z" fill="black"/>
<path d="M18.75 9.02778H20.1389V10.4167H18.75V9.02778Z" fill="black"/>
<path d="M15.9722 12.5H17.3611V13.8889H15.9722V12.5Z" fill="black"/>
<path d="M18.75 12.5H20.1389V13.8889H18.75V12.5Z" fill="black"/>
<path d="M15.9722 15.9722H17.3611V17.3611H15.9722V15.9722Z" fill="black"/>
<path d="M18.75 15.9722H20.1389V17.3611H18.75V15.9722Z" fill="black"/>
</svg>
