<svg width="25" height="24" viewBox="0 0 25 24" fill="none" xmlns="http://www.w3.org/2000/svg">
<path d="M17.1519 11.9985C17.1519 12.2968 17.0165 12.583 16.7753 12.794C16.5342 13.0049 16.2071 13.1235 15.8661 13.1235C15.5251 13.1235 15.1981 13.0049 14.9569 12.794C14.7158 12.583 14.5803 12.2968 14.5803 11.9985C14.5803 11.7001 14.7158 11.414 14.9569 11.203C15.1981 10.992 15.5251 10.8735 15.8661 10.8735C16.2071 10.8735 16.5342 10.992 16.7753 11.203C17.0165 11.414 17.1519 11.7001 17.1519 11.9985Z" fill="black"/>
<path d="M12.2109 0.0167238C12.0858 -0.00677064 11.9564 -0.00549574 11.832 0.0204555C11.7076 0.0464068 11.5915 0.0963767 11.492 0.166704C11.3926 0.237031 11.3123 0.325934 11.2573 0.426899C11.2022 0.527863 11.1736 0.638332 11.1736 0.75021V23.2498C11.1736 23.3617 11.2022 23.4721 11.2573 23.5731C11.3123 23.6741 11.3926 23.763 11.492 23.8333C11.5915 23.9036 11.7076 23.9536 11.832 23.9795C11.9564 24.0055 12.0858 24.0068 12.2109 23.9833L24.2117 21.7318C24.4034 21.6954 24.5751 21.6026 24.698 21.4688C24.821 21.3351 24.8877 21.1685 24.8872 20.9968V2.99867C24.8869 2.82733 24.8195 2.66126 24.6963 2.52809C24.5731 2.39491 24.4015 2.30266 24.21 2.26668L12.2091 0.0182236L12.2109 0.0167238ZM12.8881 22.3213V1.67869L23.1745 3.60616V20.3938L12.8881 22.3228V22.3213Z" fill="black"/>
<path d="M9.46268 22.4938V20.9938H2.60162V3.00166H9.46268V1.50169H1.74441C1.51707 1.50169 1.29903 1.5807 1.13828 1.72135C0.97752 1.862 0.887207 2.05276 0.887207 2.25167V21.7438C0.887207 21.9427 0.97752 22.1335 1.13828 22.2741C1.29903 22.4148 1.51707 22.4938 1.74441 22.4938H9.46268Z" fill="black"/>
</svg>
